<mxfile host="app.diagrams.net" agent="Mozilla/5.0 (Macintosh; Intel Mac OS X 10_15_7) AppleWebKit/537.36 (KHTML, like Gecko) Chrome/128.0.0.0 Safari/537.36" version="24.7.6">
  <diagram name="Page-1" id="4kT7j9iofxSagFXIAuhK">
    <mxGraphModel dx="2876" dy="1037" grid="1" gridSize="10" guides="1" tooltips="1" connect="1" arrows="1" fold="1" page="1" pageScale="1" pageWidth="827" pageHeight="1169" math="0" shadow="0">
      <root>
        <mxCell id="0" />
        <mxCell id="1" parent="0" />
        <mxCell id="49ff9E6S2yJVr9YKfATN-1" value="Mediacl" style="rounded=1;whiteSpace=wrap;html=1;" vertex="1" parent="1">
          <mxGeometry x="-580" y="295" width="570" height="1350" as="geometry" />
        </mxCell>
        <mxCell id="49ff9E6S2yJVr9YKfATN-2" value="Attendance" style="rounded=1;whiteSpace=wrap;html=1;" vertex="1" parent="1">
          <mxGeometry x="210" y="70" width="1050" height="200" as="geometry" />
        </mxCell>
        <mxCell id="49ff9E6S2yJVr9YKfATN-3" value="" style="rounded=1;whiteSpace=wrap;html=1;" vertex="1" parent="1">
          <mxGeometry x="174" y="310" width="2066" height="1340" as="geometry" />
        </mxCell>
        <mxCell id="49ff9E6S2yJVr9YKfATN-4" value="&lt;div&gt;ID&lt;/div&gt;Name&amp;nbsp;&lt;br&gt;Formula&lt;br&gt;dose MG&lt;div&gt;Expiry&lt;br&gt;MFG&lt;br&gt;Catogary(Fever , Sugar etc)&lt;br&gt;Batch Number&lt;br&gt;Company&lt;br&gt;Type(generic...)&lt;/div&gt;&lt;div&gt;MRP&lt;br&gt;Discount&lt;br&gt;Discount Catagory&lt;br&gt;&lt;br&gt;&lt;br&gt;&lt;/div&gt;" style="rounded=1;whiteSpace=wrap;html=1;" vertex="1" parent="1">
          <mxGeometry x="-560" y="320" width="540" height="610" as="geometry" />
        </mxCell>
        <mxCell id="49ff9E6S2yJVr9YKfATN-5" value="Billing" style="rounded=1;whiteSpace=wrap;html=1;" vertex="1" parent="1">
          <mxGeometry x="-540" y="1030" width="500" height="580" as="geometry" />
        </mxCell>
        <mxCell id="49ff9E6S2yJVr9YKfATN-7" value="Doctor , staff" style="text;html=1;align=center;verticalAlign=middle;whiteSpace=wrap;rounded=0;" vertex="1" parent="1">
          <mxGeometry x="320" y="210" width="60" height="30" as="geometry" />
        </mxCell>
        <mxCell id="49ff9E6S2yJVr9YKfATN-8" value="&lt;h3&gt;Basic Information&lt;/h3&gt;&lt;ul&gt;&lt;li&gt;&lt;strong&gt;patient_id&lt;/strong&gt;: &lt;code&gt;INT&lt;/code&gt; (Primary Key) - Unique identifier for each patient.&lt;/li&gt;&lt;li&gt;&lt;strong&gt;first_name&lt;/strong&gt;: &lt;code&gt;VARCHAR(100)&lt;/code&gt; - Patient&#39;s first name.&lt;/li&gt;&lt;li&gt;&lt;strong&gt;last_name&lt;/strong&gt;: &lt;code&gt;VARCHAR(100)&lt;/code&gt; - Patient&#39;s last name.&lt;/li&gt;&lt;li&gt;&lt;strong&gt;date_of_birth&lt;/strong&gt;: &lt;code&gt;DATE&lt;/code&gt; - Patient&#39;s date of birth.&lt;/li&gt;&lt;li&gt;&lt;strong&gt;gender&lt;/strong&gt;: &lt;code&gt;ENUM(&#39;Male&#39;, &#39;Female&#39;, &#39;Other&#39;)&lt;/code&gt; - Patient&#39;s gender.&lt;/li&gt;&lt;li&gt;&lt;strong&gt;blood_type&lt;/strong&gt;: &lt;code&gt;ENUM(&#39;A+&#39;, &#39;A-&#39;, &#39;B+&#39;, &#39;B-&#39;, &#39;AB+&#39;, &#39;AB-&#39;, &#39;O+&#39;, &#39;O-&#39;)&lt;/code&gt; - Patient&#39;s blood group.&lt;/li&gt;&lt;/ul&gt;&lt;h3&gt;Contact Information&lt;/h3&gt;&lt;ul&gt;&lt;li&gt;&lt;strong&gt;address&lt;/strong&gt;: &lt;code&gt;VARCHAR(255)&lt;/code&gt; - Patient&#39;s residential address.&lt;/li&gt;&lt;li&gt;&lt;strong&gt;phone_number&lt;/strong&gt;: &lt;code&gt;VARCHAR(15)&lt;/code&gt; - Contact phone number.&lt;/li&gt;&lt;li&gt;&lt;strong&gt;email&lt;/strong&gt;: &lt;code&gt;VARCHAR(100)&lt;/code&gt; - Patient&#39;s email address.&lt;/li&gt;&lt;li&gt;&lt;strong&gt;emergency_contact_name&lt;/strong&gt;: &lt;code&gt;VARCHAR(100)&lt;/code&gt; - Name of the emergency contact person.&lt;/li&gt;&lt;li&gt;&lt;strong&gt;emergency_contact_number&lt;/strong&gt;: &lt;code&gt;VARCHAR(15)&lt;/code&gt; - Emergency contact person&#39;s phone number.&lt;/li&gt;&lt;li&gt;&lt;strong&gt;relationship_to_emergency_contact&lt;/strong&gt;: &lt;code&gt;VARCHAR(50)&lt;/code&gt; - Relationship to the emergency contact person.&lt;/li&gt;&lt;/ul&gt;&lt;h3&gt;Medical Information&lt;/h3&gt;&lt;ul&gt;&lt;li&gt;&lt;strong&gt;medical_history&lt;/strong&gt;: &lt;code&gt;TEXT&lt;/code&gt; - A brief history of past medical conditions, surgeries, etc.&lt;/li&gt;&lt;li&gt;&lt;strong&gt;current_medications&lt;/strong&gt;: &lt;code&gt;TEXT&lt;/code&gt; - List of current medications.&lt;/li&gt;&lt;li&gt;&lt;strong&gt;allergies&lt;/strong&gt;: &lt;code&gt;TEXT&lt;/code&gt; - Allergies the patient has.&lt;/li&gt;&lt;li&gt;&lt;strong&gt;primary_physician_id&lt;/strong&gt;: &lt;code&gt;INT&lt;/code&gt; - Reference to the primary doctor responsible for the patient (Foreign Key).&lt;/li&gt;&lt;li&gt;&lt;strong&gt;diagnosis&lt;/strong&gt;: &lt;code&gt;TEXT&lt;/code&gt; - Current diagnosis.&lt;/li&gt;&lt;li&gt;&lt;strong&gt;treatment_plan&lt;/strong&gt;: &lt;code&gt;TEXT&lt;/code&gt; - Planned or ongoing treatment details.&lt;/li&gt;&lt;/ul&gt;&lt;h3&gt;Admission and Visit Details&lt;/h3&gt;&lt;ul&gt;&lt;li&gt;&lt;strong&gt;admission_date&lt;/strong&gt;: &lt;code&gt;DATETIME&lt;/code&gt; - Date and time of the patient&#39;s admission.&lt;/li&gt;&lt;li&gt;&lt;strong&gt;discharge_date&lt;/strong&gt;: &lt;code&gt;DATETIME&lt;/code&gt; - Date and time of the patient&#39;s discharge (if applicable).&lt;/li&gt;&lt;li&gt;&lt;strong&gt;room_number&lt;/strong&gt;: &lt;code&gt;VARCHAR(10)&lt;/code&gt; - Room number where the patient is admitted.&lt;/li&gt;&lt;li&gt;&lt;strong&gt;bed_number&lt;/strong&gt;: &lt;code&gt;VARCHAR(10)&lt;/code&gt; - Bed number if shared rooms exist.&lt;/li&gt;&lt;li&gt;&lt;strong&gt;admission_reason&lt;/strong&gt;: &lt;code&gt;TEXT&lt;/code&gt; - Reason for admission.&lt;/li&gt;&lt;li&gt;&lt;strong&gt;visit_count&lt;/strong&gt;: &lt;code&gt;INT&lt;/code&gt; - Number of visits or admissions.&lt;/li&gt;&lt;/ul&gt;&lt;h3&gt;Administrative Information&lt;/h3&gt;&lt;ul&gt;&lt;li&gt;&lt;strong&gt;insurance_provider&lt;/strong&gt;: &lt;code&gt;VARCHAR(100)&lt;/code&gt; - Name of the patient&#39;s insurance provider.&lt;/li&gt;&lt;li&gt;&lt;strong&gt;insurance_policy_number&lt;/strong&gt;: &lt;code&gt;VARCHAR(100)&lt;/code&gt; - Insurance policy number.&lt;/li&gt;&lt;li&gt;&lt;strong&gt;insurance_validity&lt;/strong&gt;: &lt;code&gt;DATE&lt;/code&gt; - Validity of the insurance policy.&lt;/li&gt;&lt;li&gt;&lt;strong&gt;payment_status&lt;/strong&gt;: &lt;code&gt;ENUM(&#39;Paid&#39;, &#39;Pending&#39;, &#39;Partially Paid&#39;)&lt;/code&gt; - Payment status for treatments and services.&lt;/li&gt;&lt;/ul&gt;&lt;h3&gt;Additional Information&lt;/h3&gt;&lt;ul&gt;&lt;li&gt;&lt;strong&gt;created_at&lt;/strong&gt;: &lt;code&gt;DATETIME&lt;/code&gt; - Record creation timestamp.&lt;/li&gt;&lt;li&gt;&lt;strong&gt;updated_at&lt;/strong&gt;: &lt;code&gt;DATETIME&lt;/code&gt; - Record last updated timestamp.&lt;/li&gt;&lt;li&gt;&lt;strong&gt;notes&lt;/strong&gt;: &lt;code&gt;TEXT&lt;/code&gt; - Additional notes related to the patient.&lt;br&gt;&lt;br&gt;&lt;br&gt;&lt;br&gt;Patient&lt;/li&gt;&lt;/ul&gt;" style="rounded=1;whiteSpace=wrap;html=1;" vertex="1" parent="1">
          <mxGeometry x="290" y="320" width="300" height="1310" as="geometry" />
        </mxCell>
        <mxCell id="49ff9E6S2yJVr9YKfATN-9" value="&lt;br&gt;&lt;br&gt;&lt;br&gt;&lt;br&gt;&lt;br&gt;&lt;h3&gt;&lt;br&gt;&lt;/h3&gt;&lt;h3&gt;Professional Information&lt;/h3&gt;&lt;ul&gt;&lt;li&gt;&lt;strong&gt;specialization&lt;/strong&gt;: &lt;code&gt;VARCHAR(100)&lt;/code&gt; - Area of specialization (e.g., Cardiology, Neurology, Pediatrics).&lt;/li&gt;&lt;li&gt;&lt;strong&gt;license_number&lt;/strong&gt;: &lt;code&gt;VARCHAR(50)&lt;/code&gt; - Professional medical license number.&lt;/li&gt;&lt;li&gt;&lt;strong&gt;years_of_experience&lt;/strong&gt;: &lt;code&gt;INT&lt;/code&gt; - Number of years of experience.&lt;/li&gt;&lt;li&gt;&lt;strong&gt;education&lt;/strong&gt;: &lt;code&gt;TEXT&lt;/code&gt; - Educational background (e.g., medical school, certifications).&lt;/li&gt;&lt;li&gt;&lt;strong&gt;employment_type&lt;/strong&gt;: &lt;code&gt;ENUM(&#39;Full-time&#39;, &#39;Part-time&#39;, &#39;Visiting&#39;)&lt;/code&gt; - Employment status/type.&lt;/li&gt;&lt;li&gt;&lt;strong&gt;department_id&lt;/strong&gt;: &lt;code&gt;INT&lt;/code&gt; - Reference to the department where the doctor works (Foreign Key).&lt;/li&gt;&lt;/ul&gt;&lt;h3&gt;Scheduling and Availability&lt;/h3&gt;&lt;ul&gt;&lt;li&gt;&lt;strong&gt;working_days&lt;/strong&gt;: &lt;code&gt;VARCHAR(50)&lt;/code&gt; - Days the doctor is available (e.g., &#39;Monday, Wednesday, Friday&#39;).&lt;/li&gt;&lt;li&gt;&lt;strong&gt;shift_start_time&lt;/strong&gt;: &lt;code&gt;TIME&lt;/code&gt; - Starting time of the doctor&#39;s shift.&lt;/li&gt;&lt;li&gt;&lt;strong&gt;shift_end_time&lt;/strong&gt;: &lt;code&gt;TIME&lt;/code&gt; - Ending time of the doctor&#39;s shift.&lt;/li&gt;&lt;li&gt;&lt;strong&gt;available_slots&lt;/strong&gt;: &lt;code&gt;TEXT&lt;/code&gt; - Specific time slots available for appointments.&lt;/li&gt;&lt;li&gt;&lt;strong&gt;consultation_fee&lt;/strong&gt;: &lt;code&gt;DECIMAL(10, 2)&lt;/code&gt; - Fee for a consultation.&lt;/li&gt;&lt;/ul&gt;&lt;h3&gt;Administrative Information&lt;/h3&gt;&lt;ul&gt;&lt;li&gt;&lt;strong&gt;joining_date&lt;/strong&gt;: &lt;code&gt;DATE&lt;/code&gt; - Date the doctor joined the hospital.&lt;/li&gt;&lt;li&gt;&lt;strong&gt;status&lt;/strong&gt;: &lt;code&gt;ENUM(&#39;Active&#39;, &#39;Inactive&#39;, &#39;On Leave&#39;)&lt;/code&gt; - Current working status.&lt;/li&gt;&lt;li&gt;&lt;strong&gt;assigned_patients_count&lt;/strong&gt;: &lt;code&gt;INT&lt;/code&gt; - Number of patients currently assigned.&lt;/li&gt;&lt;li&gt;&lt;strong&gt;total_consultations&lt;/strong&gt;: &lt;code&gt;INT&lt;/code&gt; - Total number of consultations handled by the doctor.&lt;/li&gt;&lt;/ul&gt;&lt;h3&gt;Additional Information&lt;/h3&gt;&lt;ul&gt;&lt;li&gt;&lt;strong&gt;created_at&lt;/strong&gt;: &lt;code&gt;DATETIME&lt;/code&gt; - Record creation timestamp.&lt;/li&gt;&lt;li&gt;&lt;strong&gt;updated_at&lt;/strong&gt;: &lt;code&gt;DATETIME&lt;/code&gt; - Record last updated timestamp.&lt;/li&gt;&lt;li&gt;&lt;strong&gt;notes&lt;/strong&gt;: &lt;code&gt;TEXT&lt;/code&gt; - Additional notes or comments about the doctor.&lt;/li&gt;&lt;/ul&gt;" style="rounded=1;whiteSpace=wrap;html=1;" vertex="1" parent="1">
          <mxGeometry x="600" y="320" width="630" height="1300" as="geometry" />
        </mxCell>
        <mxCell id="49ff9E6S2yJVr9YKfATN-10" value="doctor_id,&amp;nbsp; Fullname, gender,&amp;nbsp; email, primary contact + alternate contact, qualification, license number,&amp;nbsp; expertise area, years of experience, consultation room" style="rounded=1;whiteSpace=wrap;html=1;" vertex="1" parent="1">
          <mxGeometry x="670" y="340" width="510" height="130" as="geometry" />
        </mxCell>
        <mxCell id="49ff9E6S2yJVr9YKfATN-11" value="" style="rounded=1;whiteSpace=wrap;html=1;" vertex="1" parent="1">
          <mxGeometry x="670" y="490" width="520" height="120" as="geometry" />
        </mxCell>
      </root>
    </mxGraphModel>
  </diagram>
</mxfile>
